<?xml version="1.0" encoding="UTF-8" standalone="no"?>
<!-- Created with Inkscape (http://www.inkscape.org/) -->

<svg
   width="210mm"
   height="297mm"
   viewBox="0 0 210 297"
   version="1.1"
   id="svg5"
   sodipodi:docname="ballinglyc.svg"
   inkscape:version="1.1.1 (3bf5ae0d25, 2021-09-20)"
   xmlns:inkscape="http://www.inkscape.org/namespaces/inkscape"
   xmlns:sodipodi="http://sodipodi.sourceforge.net/DTD/sodipodi-0.dtd"
   xmlns:xlink="http://www.w3.org/1999/xlink"
   xmlns="http://www.w3.org/2000/svg"
   xmlns:svg="http://www.w3.org/2000/svg">
  <sodipodi:namedview
     id="namedview7"
     pagecolor="#505050"
     bordercolor="#eeeeee"
     borderopacity="1"
     inkscape:pageshadow="0"
     inkscape:pageopacity="0"
     inkscape:pagecheckerboard="0"
     inkscape:document-units="mm"
     showgrid="false"
     inkscape:zoom="0.77682379"
     inkscape:cx="334.05259"
     inkscape:cy="458.92003"
     inkscape:window-width="1920"
     inkscape:window-height="1057"
     inkscape:window-x="-8"
     inkscape:window-y="-8"
     inkscape:window-maximized="1"
     inkscape:current-layer="layer1"
     inkscape:snap-global="false" />
  <defs
     id="defs2">
    <inkscape:path-effect
       effect="powerstroke"
       id="path-effect14527"
       is_visible="true"
       lpeversion="1"
       offset_points="0,3"
       not_jump="false"
       sort_points="true"
       interpolator_type="CubicBezierJohan"
       interpolator_beta="0.2"
       start_linecap_type="zerowidth"
       linejoin_type="extrp_arc"
       miter_limit="4"
       scale_width="1"
       end_linecap_type="zerowidth" />
    <inkscape:path-effect
       effect="powerstroke"
       id="path-effect14297"
       is_visible="true"
       lpeversion="1"
       offset_points="0,3"
       not_jump="false"
       sort_points="true"
       interpolator_type="CubicBezierJohan"
       interpolator_beta="0.2"
       start_linecap_type="zerowidth"
       linejoin_type="extrp_arc"
       miter_limit="4"
       scale_width="1"
       end_linecap_type="zerowidth" />
    <g
       id="g2685">
      <symbol
         overflow="visible"
         id="symbol5402">
        <path
           style="stroke:none;"
           d=""
           id="path4895" />
      </symbol>
      <symbol
         overflow="visible"
         id="symbol9797">
        <path
           style="stroke:none;"
           d="M 2.640625 -3.71875 L 3.765625 -3.71875 C 3.4375 -2.25 3.34375 -1.8125 3.34375 -1.140625 C 3.34375 -1 3.34375 -0.734375 3.421875 -0.390625 C 3.53125 0.046875 3.640625 0.109375 3.78125 0.109375 C 3.984375 0.109375 4.203125 -0.0625 4.203125 -0.265625 C 4.203125 -0.328125 4.203125 -0.34375 4.140625 -0.484375 C 3.84375 -1.203125 3.84375 -1.859375 3.84375 -2.140625 C 3.84375 -2.65625 3.921875 -3.203125 4.03125 -3.71875 L 5.15625 -3.71875 C 5.296875 -3.71875 5.65625 -3.71875 5.65625 -4.0625 C 5.65625 -4.296875 5.4375 -4.296875 5.25 -4.296875 L 1.90625 -4.296875 C 1.6875 -4.296875 1.3125 -4.296875 0.875 -3.828125 C 0.53125 -3.4375 0.265625 -2.984375 0.265625 -2.9375 C 0.265625 -2.921875 0.265625 -2.828125 0.390625 -2.828125 C 0.46875 -2.828125 0.484375 -2.875 0.546875 -2.953125 C 1.03125 -3.71875 1.609375 -3.71875 1.8125 -3.71875 L 2.375 -3.71875 C 2.0625 -2.515625 1.53125 -1.3125 1.109375 -0.40625 C 1.03125 -0.25 1.03125 -0.234375 1.03125 -0.15625 C 1.03125 0.03125 1.1875 0.109375 1.3125 0.109375 C 1.609375 0.109375 1.6875 -0.171875 1.8125 -0.53125 C 1.953125 -1 1.953125 -1.015625 2.078125 -1.515625 Z M 2.640625 -3.71875 "
           id="path4531" />
      </symbol>
      <symbol
         overflow="visible"
         id="symbol7306">
        <path
           style="stroke:none;"
           d="M 2.859375 -6.8125 C 2.859375 -6.8125 2.859375 -6.921875 2.734375 -6.921875 C 2.5 -6.921875 1.78125 -6.84375 1.515625 -6.8125 C 1.4375 -6.8125 1.328125 -6.796875 1.328125 -6.625 C 1.328125 -6.5 1.421875 -6.5 1.5625 -6.5 C 2.046875 -6.5 2.0625 -6.4375 2.0625 -6.328125 L 2.03125 -6.125 L 0.59375 -0.390625 C 0.546875 -0.25 0.546875 -0.234375 0.546875 -0.171875 C 0.546875 0.0625 0.75 0.109375 0.84375 0.109375 C 0.96875 0.109375 1.109375 0.015625 1.171875 -0.09375 C 1.21875 -0.1875 1.671875 -2.03125 1.734375 -2.28125 C 2.078125 -2.25 2.890625 -2.09375 2.890625 -1.4375 C 2.890625 -1.359375 2.890625 -1.328125 2.859375 -1.21875 C 2.84375 -1.109375 2.828125 -0.984375 2.828125 -0.875 C 2.828125 -0.296875 3.21875 0.109375 3.734375 0.109375 C 4.03125 0.109375 4.3125 -0.046875 4.53125 -0.421875 C 4.78125 -0.859375 4.890625 -1.40625 4.890625 -1.421875 C 4.890625 -1.53125 4.796875 -1.53125 4.765625 -1.53125 C 4.671875 -1.53125 4.65625 -1.484375 4.625 -1.34375 C 4.421875 -0.625 4.203125 -0.109375 3.765625 -0.109375 C 3.5625 -0.109375 3.4375 -0.21875 3.4375 -0.578125 C 3.4375 -0.75 3.484375 -0.984375 3.515625 -1.140625 C 3.5625 -1.3125 3.5625 -1.34375 3.5625 -1.453125 C 3.5625 -2.09375 2.9375 -2.375 2.078125 -2.5 C 2.390625 -2.671875 2.71875 -2.984375 2.9375 -3.234375 C 3.421875 -3.765625 3.875 -4.1875 4.359375 -4.1875 C 4.421875 -4.1875 4.4375 -4.1875 4.453125 -4.171875 C 4.578125 -4.15625 4.578125 -4.15625 4.671875 -4.09375 C 4.6875 -4.09375 4.6875 -4.078125 4.703125 -4.0625 C 4.234375 -4.03125 4.140625 -3.640625 4.140625 -3.515625 C 4.140625 -3.359375 4.25 -3.171875 4.515625 -3.171875 C 4.78125 -3.171875 5.0625 -3.390625 5.0625 -3.78125 C 5.0625 -4.078125 4.828125 -4.40625 4.390625 -4.40625 C 4.109375 -4.40625 3.65625 -4.328125 2.9375 -3.53125 C 2.59375 -3.15625 2.203125 -2.75 1.828125 -2.609375 Z M 2.859375 -6.8125 "
           id="path4161" />
      </symbol>
      <symbol
         overflow="visible"
         id="symbol5292">
        <path
           style="stroke:none;"
           d=""
           id="path237" />
      </symbol>
      <symbol
         overflow="visible"
         id="symbol6124">
        <path
           style="stroke:none;"
           d="M 3.515625 -1.265625 L 3.28125 -1.265625 C 3.265625 -1.109375 3.1875 -0.703125 3.09375 -0.640625 C 3.046875 -0.59375 2.515625 -0.59375 2.40625 -0.59375 L 1.125 -0.59375 C 1.859375 -1.234375 2.109375 -1.4375 2.515625 -1.765625 C 3.03125 -2.171875 3.515625 -2.609375 3.515625 -3.265625 C 3.515625 -4.109375 2.78125 -4.625 1.890625 -4.625 C 1.03125 -4.625 0.4375 -4.015625 0.4375 -3.375 C 0.4375 -3.03125 0.734375 -2.984375 0.8125 -2.984375 C 0.96875 -2.984375 1.171875 -3.109375 1.171875 -3.359375 C 1.171875 -3.484375 1.125 -3.734375 0.765625 -3.734375 C 0.984375 -4.21875 1.453125 -4.375 1.78125 -4.375 C 2.484375 -4.375 2.84375 -3.828125 2.84375 -3.265625 C 2.84375 -2.65625 2.40625 -2.1875 2.1875 -1.9375 L 0.515625 -0.265625 C 0.4375 -0.203125 0.4375 -0.1875 0.4375 0 L 3.3125 0 Z M 3.515625 -1.265625 "
           id="path8706" />
      </symbol>
      <symbol
         overflow="visible"
         id="symbol3758">
        <path
           style="stroke:none;"
           d="M 5.359375 -2.34375 C 5.453125 -2.34375 5.609375 -2.34375 5.609375 -2.515625 C 5.609375 -2.6875 5.453125 -2.6875 5.359375 -2.6875 L 0.75 -2.6875 C 0.65625 -2.6875 0.484375 -2.6875 0.484375 -2.515625 C 0.484375 -2.34375 0.640625 -2.34375 0.75 -2.34375 Z M 5.359375 -0.8125 C 5.453125 -0.8125 5.609375 -0.8125 5.609375 -0.96875 C 5.609375 -1.15625 5.453125 -1.15625 5.359375 -1.15625 L 0.75 -1.15625 C 0.640625 -1.15625 0.484375 -1.15625 0.484375 -0.96875 C 0.484375 -0.8125 0.65625 -0.8125 0.75 -0.8125 Z M 5.359375 -0.8125 "
           id="path9133" />
      </symbol>
      <symbol
         overflow="visible"
         id="symbol6179">
        <path
           style="stroke:none;"
           d="M 2.328125 -4.4375 C 2.328125 -4.625 2.328125 -4.625 2.125 -4.625 C 1.671875 -4.1875 1.046875 -4.1875 0.765625 -4.1875 L 0.765625 -3.9375 C 0.921875 -3.9375 1.390625 -3.9375 1.765625 -4.125 L 1.765625 -0.578125 C 1.765625 -0.34375 1.765625 -0.25 1.078125 -0.25 L 0.8125 -0.25 L 0.8125 0 C 0.9375 0 1.796875 -0.03125 2.046875 -0.03125 C 2.265625 -0.03125 3.140625 0 3.296875 0 L 3.296875 -0.25 L 3.03125 -0.25 C 2.328125 -0.25 2.328125 -0.34375 2.328125 -0.578125 Z M 2.328125 -4.4375 "
           id="path7740" />
      </symbol>
      <symbol
         overflow="visible"
         id="symbol1341">
        <path
           style="stroke:none;"
           d=""
           id="path8795" />
      </symbol>
      <symbol
         overflow="visible"
         id="symbol3783">
        <path
           style="stroke:none;"
           d="M 1.3125 -3.265625 L 1.3125 -3.515625 C 1.3125 -6.03125 2.546875 -6.390625 3.0625 -6.390625 C 3.296875 -6.390625 3.71875 -6.328125 3.9375 -5.984375 C 3.78125 -5.984375 3.390625 -5.984375 3.390625 -5.546875 C 3.390625 -5.234375 3.625 -5.078125 3.84375 -5.078125 C 4 -5.078125 4.3125 -5.171875 4.3125 -5.5625 C 4.3125 -6.15625 3.875 -6.640625 3.046875 -6.640625 C 1.765625 -6.640625 0.421875 -5.359375 0.421875 -3.15625 C 0.421875 -0.484375 1.578125 0.21875 2.5 0.21875 C 3.609375 0.21875 4.5625 -0.71875 4.5625 -2.03125 C 4.5625 -3.296875 3.671875 -4.25 2.5625 -4.25 C 1.890625 -4.25 1.515625 -3.75 1.3125 -3.265625 Z M 2.5 -0.0625 C 1.875 -0.0625 1.578125 -0.65625 1.515625 -0.8125 C 1.328125 -1.28125 1.328125 -2.078125 1.328125 -2.25 C 1.328125 -3.03125 1.65625 -4.03125 2.546875 -4.03125 C 2.71875 -4.03125 3.171875 -4.03125 3.484375 -3.40625 C 3.65625 -3.046875 3.65625 -2.53125 3.65625 -2.046875 C 3.65625 -1.5625 3.65625 -1.0625 3.484375 -0.703125 C 3.1875 -0.109375 2.734375 -0.0625 2.5 -0.0625 Z M 2.5 -0.0625 "
           id="path2440" />
      </symbol>
      <symbol
         overflow="visible"
         id="symbol2896">
        <path
           style="stroke:none;"
           d="M 6.84375 -3.265625 C 7 -3.265625 7.1875 -3.265625 7.1875 -3.453125 C 7.1875 -3.65625 7 -3.65625 6.859375 -3.65625 L 0.890625 -3.65625 C 0.75 -3.65625 0.5625 -3.65625 0.5625 -3.453125 C 0.5625 -3.265625 0.75 -3.265625 0.890625 -3.265625 Z M 6.859375 -1.328125 C 7 -1.328125 7.1875 -1.328125 7.1875 -1.53125 C 7.1875 -1.71875 7 -1.71875 6.84375 -1.71875 L 0.890625 -1.71875 C 0.75 -1.71875 0.5625 -1.71875 0.5625 -1.53125 C 0.5625 -1.328125 0.75 -1.328125 0.890625 -1.328125 Z M 6.859375 -1.328125 "
           id="path8040" />
      </symbol>
      <symbol
         overflow="visible"
         id="symbol643">
        <path
           style="stroke:none;"
           d="M 1.765625 -6.921875 L 0.328125 -6.8125 L 0.328125 -6.5 C 1.03125 -6.5 1.109375 -6.4375 1.109375 -5.9375 L 1.109375 -0.75 C 1.109375 -0.3125 1 -0.3125 0.328125 -0.3125 L 0.328125 0 C 0.65625 -0.015625 1.1875 -0.03125 1.4375 -0.03125 C 1.6875 -0.03125 2.171875 -0.015625 2.546875 0 L 2.546875 -0.3125 C 1.875 -0.3125 1.765625 -0.3125 1.765625 -0.75 Z M 1.765625 -6.921875 "
           id="path8208" />
      </symbol>
      <symbol
         overflow="visible"
         id="symbol5585">
        <path
           style="stroke:none;"
           d="M 1.765625 -4.40625 L 0.375 -4.296875 L 0.375 -3.984375 C 1.015625 -3.984375 1.109375 -3.921875 1.109375 -3.4375 L 1.109375 -0.75 C 1.109375 -0.3125 1 -0.3125 0.328125 -0.3125 L 0.328125 0 C 0.640625 -0.015625 1.1875 -0.03125 1.421875 -0.03125 C 1.78125 -0.03125 2.125 -0.015625 2.46875 0 L 2.46875 -0.3125 C 1.796875 -0.3125 1.765625 -0.359375 1.765625 -0.75 Z M 1.796875 -6.140625 C 1.796875 -6.453125 1.5625 -6.671875 1.28125 -6.671875 C 0.96875 -6.671875 0.75 -6.40625 0.75 -6.140625 C 0.75 -5.875 0.96875 -5.609375 1.28125 -5.609375 C 1.5625 -5.609375 1.796875 -5.828125 1.796875 -6.140625 Z M 1.796875 -6.140625 "
           id="path5054" />
      </symbol>
      <symbol
         overflow="visible"
         id="symbol9850">
        <path
           style="stroke:none;"
           d="M 1.09375 -3.421875 L 1.09375 -0.75 C 1.09375 -0.3125 0.984375 -0.3125 0.3125 -0.3125 L 0.3125 0 C 0.671875 -0.015625 1.171875 -0.03125 1.453125 -0.03125 C 1.703125 -0.03125 2.21875 -0.015625 2.5625 0 L 2.5625 -0.3125 C 1.890625 -0.3125 1.78125 -0.3125 1.78125 -0.75 L 1.78125 -2.59375 C 1.78125 -3.625 2.5 -4.1875 3.125 -4.1875 C 3.765625 -4.1875 3.875 -3.65625 3.875 -3.078125 L 3.875 -0.75 C 3.875 -0.3125 3.765625 -0.3125 3.09375 -0.3125 L 3.09375 0 C 3.4375 -0.015625 3.953125 -0.03125 4.21875 -0.03125 C 4.46875 -0.03125 5 -0.015625 5.328125 0 L 5.328125 -0.3125 C 4.671875 -0.3125 4.5625 -0.3125 4.5625 -0.75 L 4.5625 -2.59375 C 4.5625 -3.625 5.265625 -4.1875 5.90625 -4.1875 C 6.53125 -4.1875 6.640625 -3.65625 6.640625 -3.078125 L 6.640625 -0.75 C 6.640625 -0.3125 6.53125 -0.3125 5.859375 -0.3125 L 5.859375 0 C 6.203125 -0.015625 6.71875 -0.03125 6.984375 -0.03125 C 7.25 -0.03125 7.765625 -0.015625 8.109375 0 L 8.109375 -0.3125 C 7.59375 -0.3125 7.34375 -0.3125 7.328125 -0.609375 L 7.328125 -2.515625 C 7.328125 -3.375 7.328125 -3.671875 7.015625 -4.03125 C 6.875 -4.203125 6.546875 -4.40625 5.96875 -4.40625 C 5.140625 -4.40625 4.6875 -3.8125 4.53125 -3.421875 C 4.390625 -4.296875 3.65625 -4.40625 3.203125 -4.40625 C 2.46875 -4.40625 2 -3.984375 1.71875 -3.359375 L 1.71875 -4.40625 L 0.3125 -4.296875 L 0.3125 -3.984375 C 1.015625 -3.984375 1.09375 -3.921875 1.09375 -3.421875 Z M 1.09375 -3.421875 "
           id="path3192" />
      </symbol>
      <symbol
         overflow="visible"
         id="symbol6067">
        <path
           style="stroke:none;"
           d="M 2.9375 -6.375 C 2.9375 -6.625 2.9375 -6.640625 2.703125 -6.640625 C 2.078125 -6 1.203125 -6 0.890625 -6 L 0.890625 -5.6875 C 1.09375 -5.6875 1.671875 -5.6875 2.1875 -5.953125 L 2.1875 -0.78125 C 2.1875 -0.421875 2.15625 -0.3125 1.265625 -0.3125 L 0.953125 -0.3125 L 0.953125 0 C 1.296875 -0.03125 2.15625 -0.03125 2.5625 -0.03125 C 2.953125 -0.03125 3.828125 -0.03125 4.171875 0 L 4.171875 -0.3125 L 3.859375 -0.3125 C 2.953125 -0.3125 2.9375 -0.421875 2.9375 -0.78125 Z M 2.9375 -6.375 "
           id="path6484" />
      </symbol>
      <symbol
         overflow="visible"
         id="symbol5493">
        <path
           style="stroke:none;"
           d=""
           id="path4129" />
      </symbol>
      <symbol
         overflow="visible"
         id="symbol1526">
        <path
           style="stroke:none;"
           d="M 0.84375 -0.4375 C 0.828125 -0.34375 0.78125 -0.171875 0.78125 -0.15625 C 0.78125 0 0.90625 0.0625 1.015625 0.0625 C 1.140625 0.0625 1.25 -0.015625 1.296875 -0.078125 C 1.328125 -0.140625 1.375 -0.375 1.421875 -0.515625 C 1.453125 -0.640625 1.53125 -0.96875 1.5625 -1.140625 C 1.609375 -1.296875 1.65625 -1.453125 1.6875 -1.609375 C 1.765625 -1.890625 1.78125 -1.953125 1.984375 -2.234375 C 2.171875 -2.515625 2.5 -2.875 3.03125 -2.875 C 3.421875 -2.875 3.4375 -2.515625 3.4375 -2.390625 C 3.4375 -1.96875 3.140625 -1.203125 3.03125 -0.90625 C 2.953125 -0.703125 2.921875 -0.640625 2.921875 -0.53125 C 2.921875 -0.15625 3.21875 0.0625 3.578125 0.0625 C 4.28125 0.0625 4.578125 -0.890625 4.578125 -1 C 4.578125 -1.09375 4.5 -1.09375 4.46875 -1.09375 C 4.375 -1.09375 4.375 -1.046875 4.34375 -0.96875 C 4.1875 -0.40625 3.875 -0.125 3.609375 -0.125 C 3.453125 -0.125 3.421875 -0.21875 3.421875 -0.375 C 3.421875 -0.53125 3.46875 -0.625 3.59375 -0.9375 C 3.671875 -1.15625 3.953125 -1.890625 3.953125 -2.28125 C 3.953125 -2.953125 3.421875 -3.078125 3.046875 -3.078125 C 2.46875 -3.078125 2.078125 -2.71875 1.875 -2.4375 C 1.828125 -2.921875 1.421875 -3.078125 1.125 -3.078125 C 0.828125 -3.078125 0.671875 -2.859375 0.578125 -2.703125 C 0.421875 -2.4375 0.328125 -2.046875 0.328125 -2 C 0.328125 -1.921875 0.421875 -1.921875 0.453125 -1.921875 C 0.546875 -1.921875 0.546875 -1.9375 0.59375 -2.125 C 0.703125 -2.53125 0.84375 -2.875 1.109375 -2.875 C 1.296875 -2.875 1.34375 -2.71875 1.34375 -2.53125 C 1.34375 -2.40625 1.28125 -2.140625 1.21875 -1.953125 C 1.171875 -1.765625 1.109375 -1.484375 1.078125 -1.328125 Z M 0.84375 -0.4375 "
           id="path6629" />
      </symbol>
      <symbol
         overflow="visible"
         id="symbol276">
        <path
           style="stroke:none;"
           d="M 2.1875 -4.625 C 2.1875 -4.640625 2.203125 -4.734375 2.203125 -4.734375 C 2.203125 -4.78125 2.1875 -4.84375 2.09375 -4.84375 C 1.953125 -4.84375 1.375 -4.78125 1.203125 -4.765625 C 1.15625 -4.765625 1.046875 -4.75 1.046875 -4.609375 C 1.046875 -4.515625 1.15625 -4.515625 1.234375 -4.515625 C 1.5625 -4.515625 1.5625 -4.453125 1.5625 -4.40625 C 1.5625 -4.359375 1.546875 -4.3125 1.546875 -4.25 L 0.5625 -0.3125 C 0.515625 -0.1875 0.515625 -0.171875 0.515625 -0.15625 C 0.515625 -0.046875 0.609375 0.0625 0.765625 0.0625 C 0.953125 0.0625 1.03125 -0.0625 1.078125 -0.21875 C 1.09375 -0.25 1.390625 -1.484375 1.421875 -1.578125 C 1.921875 -1.53125 2.3125 -1.359375 2.3125 -1 C 2.3125 -0.96875 2.3125 -0.9375 2.296875 -0.859375 C 2.265625 -0.765625 2.265625 -0.71875 2.265625 -0.640625 C 2.265625 -0.15625 2.671875 0.0625 3.015625 0.0625 C 3.6875 0.0625 3.890625 -0.984375 3.890625 -1 C 3.890625 -1.09375 3.8125 -1.09375 3.78125 -1.09375 C 3.6875 -1.09375 3.671875 -1.046875 3.640625 -0.921875 C 3.5625 -0.625 3.375 -0.125 3.03125 -0.125 C 2.84375 -0.125 2.78125 -0.296875 2.78125 -0.484375 C 2.78125 -0.609375 2.78125 -0.625 2.828125 -0.796875 C 2.84375 -0.828125 2.859375 -0.9375 2.859375 -1.015625 C 2.859375 -1.640625 2.03125 -1.734375 1.734375 -1.75 C 1.9375 -1.875 2.1875 -2.109375 2.3125 -2.21875 C 2.671875 -2.546875 3.015625 -2.875 3.40625 -2.875 C 3.484375 -2.875 3.578125 -2.859375 3.640625 -2.78125 C 3.34375 -2.734375 3.28125 -2.5 3.28125 -2.390625 C 3.28125 -2.25 3.390625 -2.140625 3.546875 -2.140625 C 3.75 -2.140625 3.953125 -2.296875 3.953125 -2.578125 C 3.953125 -2.8125 3.78125 -3.078125 3.421875 -3.078125 C 3.015625 -3.078125 2.65625 -2.78125 2.296875 -2.453125 C 2 -2.1875 1.78125 -1.96875 1.484375 -1.84375 Z M 2.1875 -4.625 "
           id="path1007" />
      </symbol>
      <symbol
         overflow="visible"
         id="symbol5864">
        <path
           style="stroke:none;"
           d=""
           id="path6866" />
      </symbol>
      <symbol
         overflow="visible"
         id="symbol5527">
        <path
           style="stroke:none;"
           d="M 6.40625 -1.578125 C 5.53125 -0.9375 5.421875 -0.015625 5.421875 -0.015625 C 5.421875 0.09375 5.484375 0.09375 5.578125 0.09375 C 5.703125 0.09375 5.734375 0.09375 5.765625 -0.03125 C 5.8125 -0.203125 5.921875 -0.640625 6.28125 -1.03125 C 6.6875 -1.453125 7.03125 -1.5625 7.328125 -1.65625 C 7.359375 -1.671875 7.390625 -1.703125 7.390625 -1.734375 C 7.390625 -1.8125 7.359375 -1.828125 7.265625 -1.859375 C 6.265625 -2.171875 5.90625 -2.890625 5.75 -3.5 C 5.734375 -3.578125 5.671875 -3.578125 5.578125 -3.578125 C 5.484375 -3.578125 5.421875 -3.578125 5.421875 -3.484375 C 5.421875 -3.46875 5.484375 -3 5.828125 -2.515625 C 5.984375 -2.28125 6.1875 -2.078125 6.40625 -1.921875 L 0.8125 -1.921875 C 0.703125 -1.921875 0.53125 -1.921875 0.53125 -1.75 C 0.53125 -1.578125 0.703125 -1.578125 0.8125 -1.578125 Z M 6.40625 -1.578125 "
           id="path6102" />
      </symbol>
      <symbol
         overflow="visible"
         id="symbol1998">
        <path
           style="stroke:none;"
           d="M 4.03125 -1.90625 C 3.65625 -2.34375 3.546875 -2.453125 3.28125 -2.640625 C 2.859375 -2.953125 2.40625 -3.078125 2.03125 -3.078125 C 1.15625 -3.078125 0.53125 -2.328125 0.53125 -1.5 C 0.53125 -0.6875 1.140625 0.0625 2 0.0625 C 2.96875 0.0625 3.65625 -0.71875 3.90625 -1.09375 C 4.265625 -0.65625 4.390625 -0.546875 4.640625 -0.359375 C 5.078125 -0.046875 5.515625 0.0625 5.90625 0.0625 C 6.765625 0.0625 7.390625 -0.671875 7.390625 -1.5 C 7.390625 -2.328125 6.796875 -3.078125 5.921875 -3.078125 C 4.953125 -3.078125 4.28125 -2.28125 4.03125 -1.90625 Z M 4.25 -1.65625 C 4.53125 -2.109375 5.140625 -2.8125 5.984375 -2.8125 C 6.703125 -2.8125 7.203125 -2.171875 7.203125 -1.5 C 7.203125 -0.84375 6.65625 -0.3125 6.015625 -0.3125 C 5.359375 -0.3125 4.921875 -0.84375 4.25 -1.65625 Z M 3.671875 -1.359375 C 3.40625 -0.90625 2.796875 -0.1875 1.9375 -0.1875 C 1.21875 -0.1875 0.734375 -0.828125 0.734375 -1.5 C 0.734375 -2.171875 1.28125 -2.6875 1.921875 -2.6875 C 2.5625 -2.6875 3.015625 -2.15625 3.671875 -1.359375 Z M 3.671875 -1.359375 "
           id="path7007" />
      </symbol>
      <symbol
         overflow="visible"
         id="symbol9817">
        <path
           style="stroke:none;"
           d=""
           id="path4525" />
      </symbol>
      <symbol
         overflow="visible"
         id="symbol6834">
        <path
           style="stroke:none;"
           d="M 12.625 13.953125 L 13.828125 10.765625 L 13.578125 10.765625 C 13.1875 11.796875 12.125 12.484375 10.984375 12.78125 C 10.78125 12.828125 9.796875 13.09375 7.890625 13.09375 L 1.875 13.09375 L 6.953125 7.140625 C 7.015625 7.0625 7.03125 7.03125 7.03125 6.984375 C 7.03125 6.953125 7.03125 6.921875 6.96875 6.828125 L 2.328125 0.484375 L 7.78125 0.484375 C 9.125 0.484375 10.03125 0.625 10.125 0.640625 C 10.65625 0.71875 11.53125 0.890625 12.3125 1.390625 C 12.5625 1.546875 13.234375 2 13.578125 2.796875 L 13.828125 2.796875 L 12.625 0 L 0.84375 0 C 0.609375 0 0.59375 0.015625 0.5625 0.0625 C 0.5625 0.09375 0.5625 0.296875 0.5625 0.40625 L 5.828125 7.609375 L 0.671875 13.671875 C 0.5625 13.78125 0.5625 13.84375 0.5625 13.84375 C 0.5625 13.953125 0.65625 13.953125 0.84375 13.953125 Z M 12.625 13.953125 "
           id="path1047" />
      </symbol>
    </g>
    <g
       id="g6008">
      <symbol
         overflow="visible"
         id="symbol2024">
        <path
           style="stroke:none;"
           d=""
           id="path4921" />
      </symbol>
      <symbol
         overflow="visible"
         id="symbol7001">
        <path
           style="stroke:none;"
           d="M 5.359375 -5.9375 C 5.21875 -5.796875 4.890625 -5.515625 4.890625 -5.34375 C 4.890625 -5.25 4.984375 -5.140625 5.078125 -5.140625 C 5.171875 -5.140625 5.21875 -5.21875 5.28125 -5.28125 C 5.390625 -5.421875 5.625 -5.703125 6.0625 -5.921875 C 6.125 -5.96875 6.234375 -6.015625 6.234375 -6.125 C 6.234375 -6.234375 6.15625 -6.28125 6.09375 -6.328125 C 5.875 -6.484375 5.765625 -6.65625 5.6875 -6.890625 C 5.65625 -6.984375 5.625 -7.125 5.484375 -7.125 C 5.34375 -7.125 5.28125 -6.984375 5.28125 -6.90625 C 5.28125 -6.859375 5.359375 -6.546875 5.515625 -6.328125 L 2.15625 -6.328125 C 2 -6.328125 1.8125 -6.328125 1.8125 -6.125 C 1.8125 -5.9375 2 -5.9375 2.15625 -5.9375 Z M 5.359375 -5.9375 "
           id="path3062" />
      </symbol>
      <symbol
         overflow="visible"
         id="symbol7018">
        <path
           style="stroke:none;"
           d="M 3.015625 -3.234375 L 3.984375 -3.234375 C 4.734375 -3.234375 4.8125 -3.078125 4.8125 -2.796875 C 4.8125 -2.71875 4.8125 -2.609375 4.75 -2.296875 C 4.71875 -2.25 4.71875 -2.21875 4.71875 -2.1875 C 4.71875 -2.109375 4.78125 -2.078125 4.828125 -2.078125 C 4.9375 -2.078125 4.9375 -2.109375 4.984375 -2.28125 L 5.53125 -4.453125 C 5.5625 -4.5625 5.5625 -4.578125 5.5625 -4.609375 C 5.5625 -4.625 5.546875 -4.71875 5.4375 -4.71875 C 5.34375 -4.71875 5.328125 -4.671875 5.296875 -4.5 C 5.078125 -3.734375 4.859375 -3.546875 4 -3.546875 L 3.09375 -3.546875 L 3.734375 -6.078125 C 3.828125 -6.4375 3.84375 -6.46875 4.28125 -6.46875 L 5.59375 -6.46875 C 6.8125 -6.46875 7.046875 -6.140625 7.046875 -5.375 C 7.046875 -5.140625 7.046875 -5.109375 7.015625 -4.828125 C 7 -4.703125 7 -4.6875 7 -4.65625 C 7 -4.609375 7.03125 -4.53125 7.125 -4.53125 C 7.234375 -4.53125 7.234375 -4.59375 7.25 -4.78125 L 7.453125 -6.515625 C 7.484375 -6.78125 7.4375 -6.78125 7.1875 -6.78125 L 2.296875 -6.78125 C 2.109375 -6.78125 2 -6.78125 2 -6.578125 C 2 -6.46875 2.09375 -6.46875 2.28125 -6.46875 C 2.65625 -6.46875 2.9375 -6.46875 2.9375 -6.296875 C 2.9375 -6.25 2.9375 -6.234375 2.875 -6.046875 L 1.5625 -0.78125 C 1.46875 -0.390625 1.453125 -0.3125 0.65625 -0.3125 C 0.484375 -0.3125 0.375 -0.3125 0.375 -0.125 C 0.375 0 0.5 0 0.53125 0 C 0.8125 0 1.5625 -0.03125 1.84375 -0.03125 C 2.171875 -0.03125 3 0 3.328125 0 C 3.421875 0 3.53125 0 3.53125 -0.1875 C 3.53125 -0.265625 3.484375 -0.296875 3.484375 -0.296875 C 3.453125 -0.3125 3.421875 -0.3125 3.203125 -0.3125 C 2.984375 -0.3125 2.9375 -0.3125 2.6875 -0.328125 C 2.390625 -0.359375 2.359375 -0.40625 2.359375 -0.53125 C 2.359375 -0.546875 2.359375 -0.609375 2.40625 -0.75 Z M 3.015625 -3.234375 "
           id="path9538" />
      </symbol>
      <symbol
         overflow="visible"
         id="symbol9858">
        <path
           style="stroke:none;"
           d=""
           id="path8555" />
      </symbol>
      <symbol
         overflow="visible"
         id="symbol7094">
        <path
           style="stroke:none;"
           d="M 0.515625 0.84375 C 0.46875 1.046875 0.453125 1.09375 0.1875 1.09375 C 0.09375 1.09375 0 1.09375 0 1.25 C 0 1.328125 0.0625 1.359375 0.09375 1.359375 C 0.265625 1.359375 0.5 1.328125 0.6875 1.328125 C 0.921875 1.328125 1.1875 1.359375 1.421875 1.359375 C 1.484375 1.359375 1.5625 1.328125 1.5625 1.203125 C 1.5625 1.09375 1.46875 1.09375 1.375 1.09375 C 1.21875 1.09375 1.03125 1.09375 1.03125 1.015625 C 1.03125 0.984375 1.09375 0.796875 1.109375 0.703125 C 1.203125 0.328125 1.296875 -0.046875 1.375 -0.34375 C 1.453125 -0.203125 1.671875 0.0625 2.09375 0.0625 C 2.9375 0.0625 3.875 -0.875 3.875 -1.90625 C 3.875 -2.71875 3.3125 -3.078125 2.84375 -3.078125 C 2.40625 -3.078125 2.03125 -2.78125 1.84375 -2.578125 C 1.734375 -2.984375 1.34375 -3.078125 1.125 -3.078125 C 0.859375 -3.078125 0.6875 -2.890625 0.578125 -2.703125 C 0.4375 -2.46875 0.328125 -2.046875 0.328125 -2 C 0.328125 -1.921875 0.421875 -1.921875 0.453125 -1.921875 C 0.546875 -1.921875 0.546875 -1.9375 0.59375 -2.125 C 0.703125 -2.53125 0.84375 -2.875 1.109375 -2.875 C 1.296875 -2.875 1.34375 -2.71875 1.34375 -2.53125 C 1.34375 -2.453125 1.328125 -2.375 1.3125 -2.328125 Z M 1.84375 -2.234375 C 2.25 -2.78125 2.59375 -2.875 2.8125 -2.875 C 3.09375 -2.875 3.328125 -2.671875 3.328125 -2.203125 C 3.328125 -1.921875 3.171875 -1.203125 2.96875 -0.796875 C 2.78125 -0.453125 2.453125 -0.125 2.09375 -0.125 C 1.59375 -0.125 1.46875 -0.65625 1.46875 -0.734375 C 1.46875 -0.765625 1.484375 -0.8125 1.484375 -0.84375 Z M 1.84375 -2.234375 "
           id="path2922" />
      </symbol>
    </g>
    <g
       id="g7583">
      <symbol
         overflow="visible"
         id="symbol2661">
        <path
           style="stroke:none;"
           d=""
           id="path7435" />
      </symbol>
      <symbol
         overflow="visible"
         id="symbol2061">
        <path
           style="stroke:none;"
           d="M 5.359375 -5.9375 C 5.21875 -5.796875 4.890625 -5.515625 4.890625 -5.34375 C 4.890625 -5.25 4.984375 -5.140625 5.078125 -5.140625 C 5.171875 -5.140625 5.21875 -5.21875 5.28125 -5.28125 C 5.390625 -5.421875 5.625 -5.703125 6.0625 -5.921875 C 6.125 -5.96875 6.234375 -6.015625 6.234375 -6.125 C 6.234375 -6.234375 6.15625 -6.28125 6.09375 -6.328125 C 5.875 -6.484375 5.765625 -6.65625 5.6875 -6.890625 C 5.65625 -6.984375 5.625 -7.125 5.484375 -7.125 C 5.34375 -7.125 5.28125 -6.984375 5.28125 -6.90625 C 5.28125 -6.859375 5.359375 -6.546875 5.515625 -6.328125 L 2.15625 -6.328125 C 2 -6.328125 1.8125 -6.328125 1.8125 -6.125 C 1.8125 -5.9375 2 -5.9375 2.15625 -5.9375 Z M 5.359375 -5.9375 "
           id="path7702" />
      </symbol>
      <symbol
         overflow="visible"
         id="symbol8996">
        <path
           style="stroke:none;"
           d="M 3.015625 -3.234375 L 3.984375 -3.234375 C 4.734375 -3.234375 4.8125 -3.078125 4.8125 -2.796875 C 4.8125 -2.71875 4.8125 -2.609375 4.75 -2.296875 C 4.71875 -2.25 4.71875 -2.21875 4.71875 -2.1875 C 4.71875 -2.109375 4.78125 -2.078125 4.828125 -2.078125 C 4.9375 -2.078125 4.9375 -2.109375 4.984375 -2.28125 L 5.53125 -4.453125 C 5.5625 -4.5625 5.5625 -4.578125 5.5625 -4.609375 C 5.5625 -4.625 5.546875 -4.71875 5.4375 -4.71875 C 5.34375 -4.71875 5.328125 -4.671875 5.296875 -4.5 C 5.078125 -3.734375 4.859375 -3.546875 4 -3.546875 L 3.09375 -3.546875 L 3.734375 -6.078125 C 3.828125 -6.4375 3.84375 -6.46875 4.28125 -6.46875 L 5.59375 -6.46875 C 6.8125 -6.46875 7.046875 -6.140625 7.046875 -5.375 C 7.046875 -5.140625 7.046875 -5.109375 7.015625 -4.828125 C 7 -4.703125 7 -4.6875 7 -4.65625 C 7 -4.609375 7.03125 -4.53125 7.125 -4.53125 C 7.234375 -4.53125 7.234375 -4.59375 7.25 -4.78125 L 7.453125 -6.515625 C 7.484375 -6.78125 7.4375 -6.78125 7.1875 -6.78125 L 2.296875 -6.78125 C 2.109375 -6.78125 2 -6.78125 2 -6.578125 C 2 -6.46875 2.09375 -6.46875 2.28125 -6.46875 C 2.65625 -6.46875 2.9375 -6.46875 2.9375 -6.296875 C 2.9375 -6.25 2.9375 -6.234375 2.875 -6.046875 L 1.5625 -0.78125 C 1.46875 -0.390625 1.453125 -0.3125 0.65625 -0.3125 C 0.484375 -0.3125 0.375 -0.3125 0.375 -0.125 C 0.375 0 0.5 0 0.53125 0 C 0.8125 0 1.5625 -0.03125 1.84375 -0.03125 C 2.171875 -0.03125 3 0 3.328125 0 C 3.421875 0 3.53125 0 3.53125 -0.1875 C 3.53125 -0.265625 3.484375 -0.296875 3.484375 -0.296875 C 3.453125 -0.3125 3.421875 -0.3125 3.203125 -0.3125 C 2.984375 -0.3125 2.9375 -0.3125 2.6875 -0.328125 C 2.390625 -0.359375 2.359375 -0.40625 2.359375 -0.53125 C 2.359375 -0.546875 2.359375 -0.609375 2.40625 -0.75 Z M 3.015625 -3.234375 "
           id="path5719" />
      </symbol>
      <symbol
         overflow="visible"
         id="symbol2550">
        <path
           style="stroke:none;"
           d=""
           id="path4300" />
      </symbol>
      <symbol
         overflow="visible"
         id="symbol6888">
        <path
           style="stroke:none;"
           d="M 2.84375 -2.75 L 3.515625 -2.75 C 3.65625 -2.75 3.75 -2.75 3.75 -2.90625 C 3.75 -3 3.65625 -3 3.53125 -3 L 2.890625 -3 C 3.046875 -3.890625 3.09375 -4.203125 3.15625 -4.40625 C 3.1875 -4.5625 3.34375 -4.703125 3.515625 -4.703125 C 3.515625 -4.703125 3.703125 -4.703125 3.84375 -4.625 C 3.546875 -4.53125 3.53125 -4.28125 3.53125 -4.25 C 3.53125 -4.09375 3.65625 -3.984375 3.8125 -3.984375 C 4 -3.984375 4.203125 -4.140625 4.203125 -4.40625 C 4.203125 -4.734375 3.875 -4.90625 3.515625 -4.90625 C 3.203125 -4.90625 2.859375 -4.734375 2.671875 -4.390625 C 2.53125 -4.125 2.484375 -3.8125 2.328125 -3 L 1.78125 -3 C 1.640625 -3 1.546875 -3 1.546875 -2.84375 C 1.546875 -2.75 1.640625 -2.75 1.765625 -2.75 L 2.28125 -2.75 C 2.28125 -2.703125 1.84375 -0.203125 1.671875 0.546875 C 1.640625 0.703125 1.515625 1.21875 1.1875 1.21875 C 1.171875 1.21875 1.015625 1.21875 0.875 1.140625 C 1.15625 1.046875 1.1875 0.796875 1.1875 0.765625 C 1.1875 0.609375 1.0625 0.5 0.90625 0.5 C 0.71875 0.5 0.515625 0.65625 0.515625 0.921875 C 0.515625 1.234375 0.84375 1.421875 1.1875 1.421875 C 1.625 1.421875 1.9375 0.96875 2.015625 0.8125 C 2.265625 0.34375 2.4375 -0.515625 2.453125 -0.59375 Z M 2.84375 -2.75 "
           id="path4748" />
      </symbol>
    </g>
    <g
       id="g6477">
      <symbol
         overflow="visible"
         id="symbol5097">
        <path
           style="stroke:none;"
           d=""
           id="path9058" />
      </symbol>
      <symbol
         overflow="visible"
         id="symbol1063">
        <path
           style="stroke:none;"
           d="M 5.359375 -5.9375 C 5.21875 -5.796875 4.890625 -5.515625 4.890625 -5.34375 C 4.890625 -5.25 4.984375 -5.140625 5.078125 -5.140625 C 5.171875 -5.140625 5.21875 -5.21875 5.28125 -5.28125 C 5.390625 -5.421875 5.625 -5.703125 6.0625 -5.921875 C 6.125 -5.96875 6.234375 -6.015625 6.234375 -6.125 C 6.234375 -6.234375 6.15625 -6.28125 6.09375 -6.328125 C 5.875 -6.484375 5.765625 -6.65625 5.6875 -6.890625 C 5.65625 -6.984375 5.625 -7.125 5.484375 -7.125 C 5.34375 -7.125 5.28125 -6.984375 5.28125 -6.90625 C 5.28125 -6.859375 5.359375 -6.546875 5.515625 -6.328125 L 2.15625 -6.328125 C 2 -6.328125 1.8125 -6.328125 1.8125 -6.125 C 1.8125 -5.9375 2 -5.9375 2.15625 -5.9375 Z M 5.359375 -5.9375 "
           id="path6146" />
      </symbol>
      <symbol
         overflow="visible"
         id="symbol1290">
        <path
           style="stroke:none;"
           d="M 3.015625 -3.234375 L 3.984375 -3.234375 C 4.734375 -3.234375 4.8125 -3.078125 4.8125 -2.796875 C 4.8125 -2.71875 4.8125 -2.609375 4.75 -2.296875 C 4.71875 -2.25 4.71875 -2.21875 4.71875 -2.1875 C 4.71875 -2.109375 4.78125 -2.078125 4.828125 -2.078125 C 4.9375 -2.078125 4.9375 -2.109375 4.984375 -2.28125 L 5.53125 -4.453125 C 5.5625 -4.5625 5.5625 -4.578125 5.5625 -4.609375 C 5.5625 -4.625 5.546875 -4.71875 5.4375 -4.71875 C 5.34375 -4.71875 5.328125 -4.671875 5.296875 -4.5 C 5.078125 -3.734375 4.859375 -3.546875 4 -3.546875 L 3.09375 -3.546875 L 3.734375 -6.078125 C 3.828125 -6.4375 3.84375 -6.46875 4.28125 -6.46875 L 5.59375 -6.46875 C 6.8125 -6.46875 7.046875 -6.140625 7.046875 -5.375 C 7.046875 -5.140625 7.046875 -5.109375 7.015625 -4.828125 C 7 -4.703125 7 -4.6875 7 -4.65625 C 7 -4.609375 7.03125 -4.53125 7.125 -4.53125 C 7.234375 -4.53125 7.234375 -4.59375 7.25 -4.78125 L 7.453125 -6.515625 C 7.484375 -6.78125 7.4375 -6.78125 7.1875 -6.78125 L 2.296875 -6.78125 C 2.109375 -6.78125 2 -6.78125 2 -6.578125 C 2 -6.46875 2.09375 -6.46875 2.28125 -6.46875 C 2.65625 -6.46875 2.9375 -6.46875 2.9375 -6.296875 C 2.9375 -6.25 2.9375 -6.234375 2.875 -6.046875 L 1.5625 -0.78125 C 1.46875 -0.390625 1.453125 -0.3125 0.65625 -0.3125 C 0.484375 -0.3125 0.375 -0.3125 0.375 -0.125 C 0.375 0 0.5 0 0.53125 0 C 0.8125 0 1.5625 -0.03125 1.84375 -0.03125 C 2.171875 -0.03125 3 0 3.328125 0 C 3.421875 0 3.53125 0 3.53125 -0.1875 C 3.53125 -0.265625 3.484375 -0.296875 3.484375 -0.296875 C 3.453125 -0.3125 3.421875 -0.3125 3.203125 -0.3125 C 2.984375 -0.3125 2.9375 -0.3125 2.6875 -0.328125 C 2.390625 -0.359375 2.359375 -0.40625 2.359375 -0.53125 C 2.359375 -0.546875 2.359375 -0.609375 2.40625 -0.75 Z M 3.015625 -3.234375 "
           id="path9397" />
      </symbol>
      <symbol
         overflow="visible"
         id="symbol6238">
        <path
           style="stroke:none;"
           d=""
           id="path5286" />
      </symbol>
      <symbol
         overflow="visible"
         id="symbol2778">
        <path
           style="stroke:none;"
           d="M 2.9375 -2.65625 C 2.796875 -2.890625 2.5625 -3.078125 2.21875 -3.078125 C 1.328125 -3.078125 0.421875 -2.09375 0.421875 -1.09375 C 0.421875 -0.40625 0.875 0.0625 1.484375 0.0625 C 1.859375 0.0625 2.1875 -0.140625 2.46875 -0.421875 C 2.59375 0 3 0.0625 3.1875 0.0625 C 3.4375 0.0625 3.609375 -0.078125 3.734375 -0.296875 C 3.890625 -0.578125 3.984375 -0.96875 3.984375 -1 C 3.984375 -1.09375 3.890625 -1.09375 3.875 -1.09375 C 3.765625 -1.09375 3.765625 -1.0625 3.71875 -0.875 C 3.625 -0.53125 3.5 -0.125 3.203125 -0.125 C 3.03125 -0.125 2.96875 -0.28125 2.96875 -0.46875 C 2.96875 -0.578125 3.03125 -0.84375 3.078125 -1.015625 C 3.125 -1.203125 3.203125 -1.484375 3.234375 -1.640625 L 3.375 -2.171875 C 3.421875 -2.359375 3.5 -2.6875 3.5 -2.71875 C 3.5 -2.875 3.375 -2.9375 3.265625 -2.9375 C 3.140625 -2.9375 2.984375 -2.859375 2.9375 -2.65625 Z M 2.5 -0.875 C 2.453125 -0.671875 2.296875 -0.53125 2.140625 -0.40625 C 2.078125 -0.34375 1.796875 -0.125 1.5 -0.125 C 1.234375 -0.125 0.984375 -0.3125 0.984375 -0.796875 C 0.984375 -1.171875 1.1875 -1.9375 1.359375 -2.21875 C 1.671875 -2.78125 2.03125 -2.875 2.21875 -2.875 C 2.703125 -2.875 2.84375 -2.34375 2.84375 -2.265625 C 2.84375 -2.25 2.828125 -2.1875 2.828125 -2.171875 Z M 2.5 -0.875 "
           id="path7732" />
      </symbol>
    </g>
  </defs>
  <g
     inkscape:label="Calque 1"
     inkscape:groupmode="layer"
     id="layer1">
    <rect
       style="fill:#f8efb6;fill-opacity:1;stroke:#f8efb6;stroke-width:1.34679;stroke-opacity:1"
       id="rect853"
       width="45.639904"
       height="143.11069"
       x="88.781456"
       y="51.936806"
       sodipodi:insensitive="true" />
    <rect
       style="fill:none;fill-opacity:1;stroke:#000000;stroke-width:1.43983;stroke-opacity:1"
       id="rect5883"
       width="45.411514"
       height="164.38841"
       x="89.009834"
       y="30.659084"
       sodipodi:insensitive="true" />
    <ellipse
       style="fill:#5f5f5f;fill-opacity:1;stroke:#5f5f5f;stroke-width:3.15733;stroke-opacity:1"
       id="path11047"
       cx="111.2047"
       cy="103.20068"
       rx="12.645802"
       ry="12.986398"
       sodipodi:insensitive="true" />
    <path
       style="fill:#000001;fill-opacity:1;stroke:#000000;stroke-width:0.136632px;stroke-linecap:butt;stroke-linejoin:miter;stroke-opacity:1"
       d="m 110.67204,104.19299 v 78.80722 l -4.06408,-16.11464 h 7.28732 l -3.36338,15.8939"
       id="path14827"
       sodipodi:insensitive="true" />
    <path
       style="fill:#000001;fill-opacity:1;stroke:#000000;stroke-width:0.103551px;stroke-linecap:butt;stroke-linejoin:miter;stroke-opacity:1"
       d="m 108.96906,104.19299 c 0,-20.396818 -5.7e-4,-39.97622 -5.7e-4,-61.498717 l 2.99164,12.573923 h -5.36433 l 2.37269,-12.573923"
       id="path15470"
       sodipodi:nodetypes="ccccc" />
    <path
       style="fill:#000001;fill-opacity:1;stroke:#000000;stroke-width:0.0758094px;stroke-linecap:butt;stroke-linejoin:miter;stroke-opacity:1"
       d="M 113.05621,104.19299 V 63.942839 l 2.44964,8.230423 h -4.39245 l 2.02729,-8.117681"
       id="path16479"
       sodipodi:nodetypes="ccccc" />
    <g
       inkscape:label=""
       transform="translate(20.946627,70.33355)"
       id="g17966">
      <g
         id="g590">
        <g
           style="fill:#000000;fill-opacity:1"
           id="g4169">
          <use
             xlink:href="#symbol7001"
             x="93.393997"
             y="79.445"
             id="use8749"
             width="100%"
             height="100%" />
        </g>
        <g
           style="fill:#000000;fill-opacity:1"
           id="g8209">
          <use
             xlink:href="#symbol7018"
             x="91.925003"
             y="81.962997"
             id="use5762"
             width="100%"
             height="100%" />
        </g>
        <g
           style="fill:#000000;fill-opacity:1"
           id="g5344">
          <use
             xlink:href="#symbol7094"
             x="98.332001"
             y="83.457001"
             id="use6989"
             width="100%"
             height="100%" />
        </g>
      </g>
    </g>
    <g
       inkscape:label=""
       transform="translate(24.011994,5.2796514)"
       id="g18283">
      <g
         id="g4069">
        <g
           style="fill:#000000;fill-opacity:1"
           id="g9423">
          <use
             xlink:href="#symbol2061"
             x="93.393997"
             y="79.445"
             id="use3358"
             width="100%"
             height="100%" />
        </g>
        <g
           style="fill:#000000;fill-opacity:1"
           id="g2083">
          <use
             xlink:href="#symbol8996"
             x="91.925003"
             y="81.962997"
             id="use3057"
             width="100%"
             height="100%" />
        </g>
        <g
           style="fill:#000000;fill-opacity:1"
           id="g4170">
          <use
             xlink:href="#symbol6888"
             x="98.332001"
             y="83.457001"
             id="use3532"
             width="100%"
             height="100%" />
        </g>
      </g>
    </g>
    <g
       inkscape:label=""
       transform="translate(5.6197916,1.1924971)"
       id="g18658">
      <g
         id="g2793">
        <g
           style="fill:#000000;fill-opacity:1"
           id="g2876">
          <use
             xlink:href="#symbol1063"
             x="93.393997"
             y="79.445"
             id="use524"
             width="100%"
             height="100%" />
        </g>
        <g
           style="fill:#000000;fill-opacity:1"
           id="g2605">
          <use
             xlink:href="#symbol1290"
             x="91.925003"
             y="81.962997"
             id="use2494"
             width="100%"
             height="100%" />
        </g>
        <g
           style="fill:#000000;fill-opacity:1"
           id="g3848">
          <use
             xlink:href="#symbol2778"
             x="98.332001"
             y="83.457001"
             id="use8289"
             width="100%"
             height="100%" />
        </g>
      </g>
    </g>
  </g>
</svg>
