<?xml version="1.0" encoding="UTF-8" standalone="no"?>
<!DOCTYPE svg PUBLIC "-//W3C//DTD SVG 1.0//EN" "http://www.w3.org/TR/2001/PR-SVG-20010719/DTD/svg10.dtd">
<svg width="15cm" height="5cm" viewBox="100 27 296 88" xmlns="http://www.w3.org/2000/svg" xmlns:xlink="http://www.w3.org/1999/xlink">
  <g id="Arrière-plan">
    <g>
      <line style="fill: none; stroke-opacity: 1; stroke-width: 2; stroke: #000000" x1="102" y1="40" x2="126.5" y2="40"/>
      <rect style="fill: #ffffff; fill-opacity: 1; stroke-opacity: 1; stroke-width: 2; stroke: #000000" x="126.5" y="30" width="49" height="20" rx="0" ry="0"/>
      <line style="fill: none; stroke-opacity: 1; stroke-width: 2; stroke: #000000" x1="175.5" y1="40" x2="200" y2="40"/>
    </g>
    <text font-size="12.7998" style="fill: #000000; fill-opacity: 1; stroke: none;text-anchor:start;font-family:sans-serif;font-style:normal;font-weight:normal" x="131" y="45">
      <tspan x="131" y="45">10 [Ω]</tspan>
    </text>
    <g>
      <line style="fill: none; stroke-opacity: 1; stroke-width: 2; stroke: #000000" x1="199.1" y1="39.9" x2="223.6" y2="39.9"/>
      <rect style="fill: #ffffff; fill-opacity: 1; stroke-opacity: 1; stroke-width: 2; stroke: #000000" x="223.6" y="29.9" width="49" height="20" rx="0" ry="0"/>
      <line style="fill: none; stroke-opacity: 1; stroke-width: 2; stroke: #000000" x1="272.6" y1="39.9" x2="297.1" y2="39.9"/>
    </g>
    <g>
      <line style="fill: none; stroke-opacity: 1; stroke-width: 2; stroke: #000000" x1="297.1" y1="39.9" x2="321.6" y2="39.9"/>
      <rect style="fill: #ffffff; fill-opacity: 1; stroke-opacity: 1; stroke-width: 2; stroke: #000000" x="321.6" y="29.9" width="49" height="20" rx="0" ry="0"/>
      <line style="fill: none; stroke-opacity: 1; stroke-width: 2; stroke: #000000" x1="370.6" y1="39.9" x2="395.1" y2="39.9"/>
    </g>
    <text font-size="12.7998" style="fill: #000000; fill-opacity: 1; stroke: none;text-anchor:start;font-family:sans-serif;font-style:normal;font-weight:normal" x="229.1" y="43.7811">
      <tspan x="229.1" y="43.7811">20 [Ω]</tspan>
    </text>
    <text font-size="12.7998" style="fill: #000000; fill-opacity: 1; stroke: none;text-anchor:start;font-family:sans-serif;font-style:normal;font-weight:normal" x="326.2" y="43.6811">
      <tspan x="326.2" y="43.6811">50 [Ω]</tspan>
    </text>
    <g>
      <line style="fill: none; stroke-opacity: 1; stroke-width: 2; stroke: #000000" x1="217" y1="105" x2="242" y2="105"/>
      <line style="fill: none; stroke-opacity: 1; stroke-width: 2; stroke: #000000" x1="242" y1="100" x2="242" y2="110"/>
      <line style="fill: none; stroke-opacity: 1; stroke-width: 2; stroke: #000000" x1="252" y1="95" x2="252" y2="115"/>
      <line style="fill: none; stroke-opacity: 1; stroke-width: 2; stroke: #000000" x1="257" y1="100" x2="267" y2="100"/>
      <line style="fill: none; stroke-opacity: 1; stroke-width: 2; stroke: #000000" x1="262" y1="102.5" x2="262" y2="97.5"/>
      <line style="fill: none; stroke-opacity: 1; stroke-width: 2; stroke: #000000" x1="252" y1="105" x2="277" y2="105"/>
    </g>
    <polyline style="fill: none; stroke-opacity: 1; stroke-width: 2; stroke: #000000" points="102,40 101.903,104.755 217,105 "/>
    <polyline style="fill: none; stroke-opacity: 1; stroke-width: 2; stroke: #000000" points="395.1,39.9 395.376,104.723 277,105 "/>
  </g>
</svg>
